<svg xmlns="http://www.w3.org/2000/svg" viewBox="0 0 1025 1024" width="13" height="13">
<path fill="#EFEFEF" d="M759.437045 514.166333c-42.551661-6.070033-71.041607 8.457505-87.444723 21.7135-23.091517 18.658519-38.151425 47.988994-40.284997 78.460992-1.456849 20.798234 8.373554 53.915698 29.976485 76.971382 16.179931 17.266169 36.391535 26.384016 58.47974 26.384016 0.130021 0 0.264137-0.001024 0.395182-0.001024 14.135428-0.069618 25.537344-11.58415 25.46875-25.720602-0.069618-14.093453-11.514533-25.46875-25.591605-25.46875-0.088046 0-0.175068 0.001024-0.263113 0.001024-7.793067 0-14.707725-3.336522-21.136084-10.195895-11.742837-12.531154-16.757346-31.369859-16.266952-38.394062 0.89479-12.776862 6.984275-30.577448 21.393054-42.21893 12.358134-9.986019 28.525779-13.640939 48.045303-10.853167 53.750868 7.665094 91.378113 46.130821 95.859229 97.991778 2.444803 28.290308-11.351751 55.632588-36.903428 73.139347-34.220082 23.445747-79.879961 24.13578-125.268536 1.897077-38.109449-18.672852-72.262985-28.842129-102.337754-33.367268 2.183738-3.473709 4.208789-7.035465 6.050581-10.682194 10.70267-21.18113 15.293331-44.721066 13.275447-68.073649-6.506167-75.303633-62.619935-133.277622-139.631245-144.261834-42.551661-6.070033-71.041607 8.458529-87.445747 21.714523-23.091517 18.658519-38.150401 47.988994-40.283973 78.459968-1.455825 20.799258 8.374578 53.917745 29.978532 76.97343 16.178907 17.264121 36.390511 26.381969 58.476669 26.381969 0.132069 0 0.264137-0.001024 0.396206-0.001024 14.136452-0.069618 25.537344-11.585174 25.46875-25.720602-0.069618-14.093453-11.514533-25.46875-25.591605-25.46875-0.090093-0.001024-0.178139 0-0.264137 0.001024-7.792043 0-14.706701-3.336522-21.134036-10.194871-11.742837-12.531154-16.757346-31.369859-16.265929-38.395086 0.893766-12.776862 6.983251-30.577448 21.391007-42.21893 12.358134-9.987043 28.525779-13.639915 48.045303-10.853167 53.751892 7.665094 91.379137 46.130821 95.860253 97.991778 2.444803 28.290308-11.351751 55.632588-36.903428 73.139347-0.167901 0.114664-0.339897 0.220114-0.507798 0.333755-24.855502 3.402044-44.779422 10.532721-59.614096 17.744277-20.880137 0.025595-43.044103-5.351335-65.147665-16.181978-167.967623-82.301217-259.086718 0.552845-262.88292 4.119719-10.302369 9.678883-10.806072 25.876218-1.126166 36.178587 9.676835 10.300322 25.876218 10.806072 36.178587 1.126166 0.150497-0.141283 16.464543-14.486587 47.712572-21.949994 45.529858-10.874666 100.026043-1.712796 157.594612 26.494585 28.898437 14.158975 58.12551 21.311151 87.024971 21.310127 3.067266 0 6.133508-0.079855 9.192584-0.241614 24.149089-1.273591 47.218083-7.726521 67.556636-18.789564 39.881625-3.080575 85.162702 7.25046 132.411498 30.400333 28.898437 14.158975 58.12551 21.311151 87.024971 21.310127 3.067266 0 6.132484-0.079855 9.19156-0.241614 29.436949-1.553085 57.275767-10.78662 80.50959-26.705485 19.581975-13.416729 35.384128-31.295123 45.694688-51.701246 10.70267-21.18113 15.293331-44.721066 13.275447-68.073649C892.561099 583.124534 836.447331 525.150545 759.437045 514.166333z"/>
<path fill="#EFEFEF" d="M349.567994 467.751924c0.184282-0.167901 18.794683-16.920129 54.337498-24.960952 47.448435-10.73236 103.659463-1.152784 162.556908 27.705725 27.481516 13.465871 55.199526 20.267912 82.533617 20.266888 2.881961 0 5.765969-0.07576 8.638715-0.228305 27.556252-1.452754 53.580919-10.073041 75.261658-24.928191 37.894454-25.962216 58.289316-67.251548 54.556588-110.448195-3.041671-35.201894-17.362405-66.678227-41.414234-91.024907-23.486699-23.776431-54.422472-38.983763-89.462608-43.981892-30.797562-4.391023-58.308768 2.366996-79.565658 19.542047-20.920065 16.903748-34.567146 43.525283-36.504151 71.211556-1.301233 18.582759 7.63438 48.339129 27.233759 69.255099 14.19276 15.147953 31.825444 23.145778 51.013261 23.145778 0.112617 0 0.227281-0.001024 0.340921-0.001024 8.481052-0.041975 15.323021-6.951514 15.281046-15.432566-0.041975-8.455457-6.908515-15.281046-15.354758-15.281046-0.088046-0.001024-0.175068 0.001024-0.263113 0.001024-10.628957 0-20.252555-4.518996-28.605634-13.43311-13.499656-14.406731-19.711996-36.034233-19.006607-46.108297 1.353446-19.334218 10.763073-37.82586 25.169805-49.467343 14.658583-11.844192 33.47886-16.228049 55.925392-13.025643 58.643546 8.36434 99.707645 50.460416 104.614656 107.244765 2.766273 32.016892-12.679603 62.847216-41.316974 82.468095-36.800026 25.213828-87.477485 26.205877-135.560667 2.645466-36.672052-17.96951-72.487195-29.181002-106.448259-33.323245-27.620751-3.366212-54.091789-2.099787-78.678035 3.771632-42.753347 10.211252-65.303281 31.055556-66.242094 31.937037-6.180602 5.807944-6.519476 15.559516-0.711532 21.741142C333.702366 473.223042 343.386368 473.559868 349.567994 467.751924z"/>
</svg>